<?xml version="1.0" standalone="no"?>
<!DOCTYPE svg PUBLIC "-//W3C//DTD SVG 20010904//EN"
 "http://www.w3.org/TR/2001/REC-SVG-20010904/DTD/svg10.dtd">
<svg version="1.0" xmlns="http://www.w3.org/2000/svg"
 width="834.000000pt" height="769.000000pt" viewBox="0 0 834.000000 769.000000"
 preserveAspectRatio="xMidYMid meet">

<g transform="translate(0.000000,769.000000) scale(0.100000,-0.100000)"
fill="#000000" stroke="none">
<path d="M0 7596 c0 -66 4 -96 13 -99 9 -4 9 -6 -1 -6 -10 -1 -12 -281 -12
-1396 l0 -1395 34 0 c32 0 66 -20 66 -39 0 -17 -30 -32 -64 -34 l-36 -2 0
-719 c0 -627 2 -717 15 -713 8 4 17 2 20 -3 4 -6 -3 -10 -14 -10 l-21 0 0
-1264 0 -1265 22 -3 c34 -5 37 -38 4 -38 l-26 0 0 -305 0 -305 3278 0 3277 0
13 28 c10 23 10 29 -3 38 -17 13 -20 35 -6 49 6 6 2 19 -10 34 l-19 23 0 -38
c0 -22 -4 -45 -9 -53 -6 -10 -9 -2 -9 25 0 21 -1 48 -3 59 -5 25 21 27 39 3
17 -24 42 -23 42 1 0 25 20 38 30 21 11 -18 33 -1 25 19 -4 9 -8 22 -9 30 -3
19 -36 23 -43 5 -5 -15 -63 -20 -63 -6 0 5 7 17 15 28 8 10 15 25 15 33 0 11
-4 11 -18 -2 -10 -10 -22 -17 -26 -17 -8 0 12 40 31 58 7 7 13 22 13 33 0 11
5 17 10 14 6 -3 10 1 10 10 0 8 7 18 15 21 18 7 20 34 2 34 -7 0 -18 -5 -25
-12 -23 -23 -13 23 11 56 13 17 38 58 56 92 18 34 48 78 67 98 19 20 34 42 34
50 0 7 12 34 26 60 21 38 31 46 54 46 15 0 33 6 39 14 13 15 52 28 91 30 18 1
26 7 28 24 2 13 10 26 18 29 8 3 14 18 14 33 0 30 21 45 38 28 6 -6 18 -8 27
-4 14 5 15 9 5 21 -7 8 -19 15 -27 15 -11 0 -13 6 -8 23 4 12 8 36 8 52 0 47
-26 169 -38 177 -12 9 -86 7 -80 -2 2 -3 -10 -4 -28 -1 -23 3 -27 6 -12 9 11
2 28 11 37 19 10 9 25 13 33 9 11 -4 15 -2 13 6 -3 7 -10 13 -15 13 -6 0 -15
3 -19 7 -4 5 -35 8 -69 8 -50 0 -68 -5 -95 -25 -26 -19 -44 -25 -74 -23 -22 2
-41 9 -44 16 -2 6 2 12 8 12 6 0 31 13 55 30 43 30 43 30 29 60 -9 16 -23 30
-33 30 -9 0 -25 10 -35 21 -15 18 -26 21 -72 17 -68 -6 -72 10 -12 49 24 16
47 31 52 35 13 9 -19 38 -43 38 -11 0 -23 -4 -26 -10 -3 -5 -14 -10 -23 -10
-12 0 -13 3 -4 12 19 19 14 35 -11 34 -17 -1 -22 4 -21 24 2 42 13 85 34 131
11 24 20 55 20 69 0 14 9 38 20 55 11 16 22 50 26 75 4 25 10 50 14 55 11 14
11 97 1 114 -6 9 -3 25 8 45 10 17 21 50 24 73 7 42 7 43 -17 32 -18 -9 -33
-9 -57 0 -17 6 -60 11 -95 11 -37 0 -66 5 -70 12 -10 15 24 38 57 38 26 0 27
2 19 31 -5 18 -11 34 -14 36 -11 11 -77 -63 -87 -97 -20 -68 9 -109 77 -110
12 0 27 -6 33 -14 18 -21 -5 -31 -32 -13 -12 7 -34 17 -50 21 -22 5 -29 2 -36
-16 -5 -13 -19 -31 -30 -40 -26 -22 -27 -38 -1 -45 11 -3 20 -9 20 -14 0 -12
-14 -11 -26 1 -11 11 -56 -29 -60 -53 -1 -6 -9 -48 -19 -92 -10 -44 -23 -107
-30 -141 -14 -69 -22 -87 -38 -81 -18 6 -17 99 3 142 10 22 23 62 30 90 6 27
15 54 19 60 9 10 25 66 23 76 0 3 7 39 18 80 10 41 16 78 13 82 -3 4 6 22 20
40 13 18 27 52 31 77 23 147 21 151 -32 99 -26 -26 -34 -29 -51 -19 -22 11
-28 30 -11 30 6 0 10 5 10 11 0 7 -11 9 -31 5 -40 -8 -64 6 -77 44 -11 29 -13
30 -54 24 -48 -8 -78 -20 -78 -34 0 -9 56 -40 72 -40 4 0 8 7 8 15 0 8 5 15
10 15 6 0 10 -11 10 -25 0 -14 7 -28 15 -31 8 -4 12 -11 8 -18 -4 -6 -8 -18
-8 -26 0 -8 -16 -17 -40 -22 -44 -10 -58 -20 -60 -45 -1 -10 -6 -30 -10 -45
-5 -22 -3 -29 11 -35 9 -3 26 -15 36 -25 17 -17 17 -18 0 -18 -26 0 -55 -33
-41 -47 8 -8 8 -13 0 -17 -6 -4 -11 -18 -11 -31 0 -14 -9 -29 -20 -35 -11 -6
-20 -19 -20 -29 0 -10 -9 -26 -19 -35 -17 -16 -24 -16 -57 -4 -20 7 -39 19
-41 25 -6 14 -130 18 -148 5 -15 -10 -12 -73 3 -100 11 -20 11 -31 -4 -73 -16
-42 -21 -48 -43 -46 -31 2 -41 -17 -11 -21 12 -2 25 -13 29 -25 38 -99 45
-109 92 -132 l47 -24 53 19 c60 22 99 26 99 9 0 -6 -9 -13 -20 -16 -15 -4 -19
-13 -17 -40 3 -45 -15 -53 -30 -13 -14 37 -33 38 -102 3 -47 -23 -58 -25 -86
-15 -42 16 -55 15 -55 -4 0 -11 -8 -14 -27 -12 -24 3 -29 9 -35 48 -5 29 -18
54 -38 74 -22 23 -30 26 -30 14 0 -22 -26 -30 -41 -12 -7 8 -18 13 -26 10 -8
-3 -11 -2 -8 3 3 5 -4 13 -16 16 -16 6 -27 1 -39 -15 -13 -17 -23 -21 -43 -16
-16 4 -27 1 -30 -7 -3 -8 -13 -4 -31 13 -36 32 -31 62 12 75 38 11 39 18 11
46 -16 16 -23 18 -29 9 -10 -17 -31 -3 -23 15 3 8 0 15 -6 15 -6 0 -11 -3 -11
-7 0 -12 -62 -8 -93 5 -16 7 -26 16 -23 21 4 5 1 11 -6 13 -6 2 -11 20 -10 40
2 50 -22 69 -50 41 -19 -19 -22 -20 -47 -5 -24 13 -32 14 -72 1 -53 -18 -79
-14 -79 12 0 24 39 109 51 109 5 0 15 13 24 30 17 33 30 37 54 17 41 -34 98
-45 177 -36 86 11 94 14 94 35 0 21 15 17 32 -8 16 -25 38 -17 38 13 0 16 4
19 23 13 12 -3 24 -11 25 -15 2 -5 12 -9 21 -9 12 0 17 -7 17 -22 -1 -21 4
-23 49 -26 28 -2 75 3 105 11 69 18 78 41 23 63 -59 25 -73 57 -20 48 19 -4
44 -20 62 -40 24 -27 38 -34 66 -34 20 0 50 -7 68 -16 33 -17 109 -13 162 7
22 9 26 16 26 49 0 22 5 46 12 54 6 7 9 21 5 30 -3 9 -1 22 5 30 7 8 10 27 7
42 -2 16 -7 53 -11 82 -4 29 -12 55 -19 56 -67 18 -97 21 -115 14 -21 -7 -22
-12 -17 -75 l6 -68 -19 40 c-11 22 -20 48 -20 58 -1 21 -17 22 -38 2 -8 -8
-18 -13 -23 -10 -25 15 -205 -51 -216 -80 -3 -7 -26 -16 -52 -19 -96 -13 -102
-16 -102 -42 0 -15 -4 -23 -11 -19 -6 4 -30 4 -54 1 -38 -6 -44 -11 -47 -34
-2 -16 -9 -27 -18 -27 -8 0 -18 -4 -22 -10 -4 -6 -8 -2 -8 8 0 10 -8 17 -20
17 -11 0 -20 -4 -20 -8 0 -13 24 -39 40 -45 25 -8 -42 -29 -70 -22 -27 7 -91
15 -128 16 -16 1 -21 6 -18 18 3 9 10 36 15 61 12 52 40 80 85 80 34 1 59 16
69 43 5 13 13 16 27 12 11 -3 29 -4 40 0 17 5 19 12 13 51 -4 29 -2 44 5 44
11 0 62 -50 62 -60 0 -7 59 -4 67 3 3 4 15 7 25 7 11 0 18 7 18 19 0 29 18 36
40 16 16 -14 23 -15 34 -6 8 7 20 11 28 9 7 -1 42 4 77 11 55 12 64 18 73 43
11 31 18 34 36 16 10 -10 17 -10 33 0 11 7 28 11 37 8 20 -6 45 11 55 38 6 15
10 17 19 8 7 -7 23 -12 38 -11 36 0 115 41 115 59 0 20 -125 26 -214 10 -65
-11 -133 -3 -188 23 -15 7 -31 7 -45 1 -13 -5 -33 -8 -44 -6 -27 4 -38 39 -17
51 13 7 14 16 5 54 -7 37 -7 49 4 58 11 9 19 8 34 -6 15 -14 17 -20 8 -26 -7
-4 -9 -11 -5 -16 13 -13 42 14 40 36 -2 16 3 21 22 21 35 0 41 18 8 26 -15 4
-49 17 -75 30 -61 31 -69 30 -62 -4 3 -16 -1 -45 -10 -67 -9 -21 -13 -48 -10
-59 7 -21 6 -21 -14 -2 -19 17 -22 17 -28 2 -3 -9 4 -32 15 -52 21 -34 21 -74
1 -74 -38 0 -118 25 -132 42 -21 24 -23 73 -5 108 9 18 21 25 42 25 30 0 30 0
33 65 3 63 16 95 33 84 5 -3 6 2 3 10 -5 14 -71 72 -119 106 -62 43 -135 90
-139 90 -10 0 -43 -74 -50 -109 -7 -41 -33 -84 -45 -76 -13 8 6 80 39 145 32
64 36 90 19 121 -9 17 -7 21 10 26 18 4 21 13 21 52 -1 46 -15 133 -45 266 -8
38 -15 82 -15 96 0 35 -41 63 -80 54 -15 -3 -31 -2 -34 4 -4 6 -23 18 -43 28
-20 9 -45 32 -55 50 -12 20 -28 33 -40 33 -20 0 -21 -4 -15 -82 4 -56 14 -103
31 -143 36 -85 34 -134 -9 -213 -64 -115 -238 -317 -317 -365 -25 -16 -27 -16
-33 2 -3 10 -5 23 -3 27 1 5 -4 20 -11 33 -11 20 -11 26 2 38 13 13 13 18 -2
44 -12 21 -13 33 -6 46 18 31 6 57 -33 75 -48 21 -100 30 -107 18 -3 -6 -12
-10 -18 -10 -7 0 -3 7 7 15 26 20 15 28 -18 15 -56 -21 -20 14 60 57 43 24 88
53 98 63 18 18 18 20 3 26 -10 3 -24 1 -31 -5 -31 -26 -22 7 11 43 l36 37 -36
-6 c-38 -7 -77 7 -77 29 0 9 8 12 25 8 22 -4 25 -1 25 28 0 29 -3 32 -25 28
-33 -7 -33 19 0 34 14 6 25 14 25 18 0 4 11 12 25 18 14 7 30 23 35 37 5 14
16 25 24 25 7 0 16 7 19 14 4 10 1 13 -9 9 -16 -6 -20 22 -4 32 6 3 7 17 4 31
-4 15 -2 24 6 24 7 0 9 8 5 20 -4 12 -2 20 5 20 6 0 10 8 9 18 -1 9 1 25 6 35
4 10 2 23 -5 32 -11 13 -11 55 1 94 6 20 -63 22 -121 5 -74 -22 -132 -18 -160
11 -13 14 -30 25 -38 25 -8 0 -27 8 -43 17 -24 14 -33 15 -49 5 -31 -19 -47
-15 -89 24 -40 36 -68 94 -56 115 4 6 30 10 59 9 107 -5 113 -3 120 32 4 22 0
43 -13 68 -29 57 -60 84 -133 119 -37 17 -70 36 -73 42 -11 17 13 36 61 49 39
11 61 11 147 -5 116 -20 168 -42 215 -92 20 -21 39 -33 47 -29 26 10 13 41
-19 47 -21 4 -79 93 -68 104 3 3 28 -18 54 -47 34 -37 48 -48 48 -35 0 10 6
25 14 33 8 7 12 23 9 34 -3 11 0 20 6 20 16 0 5 89 -21 165 -17 48 -33 72 -82
119 -33 32 -84 74 -113 93 -29 19 -63 45 -75 59 -13 13 -25 24 -28 24 -3 0 -5
-27 -5 -60 1 -43 5 -63 17 -72 10 -7 30 -42 45 -78 16 -36 46 -96 67 -134 43
-75 42 -94 -8 -107 -22 -6 -38 -2 -69 18 -23 14 -66 37 -97 51 -57 25 -58 25
-214 6 -67 -8 -58 14 13 33 29 7 57 16 62 19 12 7 11 41 -2 65 -15 29 -3 55
36 73 46 22 95 65 95 83 0 8 -13 28 -29 44 -25 24 -38 29 -79 29 -48 0 -53 3
-104 56 -67 70 -87 111 -99 197 -11 85 4 127 50 147 40 16 66 4 101 -47 28
-41 174 -173 193 -174 6 0 35 -4 62 -8 39 -7 64 -4 112 10 34 11 65 24 68 29
3 5 -6 17 -20 26 -26 17 -33 48 -15 59 15 9 -8 36 -28 33 -9 -2 -18 5 -20 15
-2 11 3 17 13 17 15 0 15 1 1 16 -20 20 -21 17 9 64 14 22 25 51 25 65 0 14 7
28 15 31 8 4 15 9 15 13 0 16 -108 60 -175 71 -38 7 -85 21 -103 32 -20 13
-41 18 -56 14 -15 -4 -32 1 -49 14 -14 11 -35 20 -46 20 -12 0 -21 4 -21 9 0
21 -41 22 -73 2 -22 -13 -37 -17 -43 -11 -6 6 -30 11 -54 13 -49 2 -96 36 -87
61 3 8 30 32 59 54 29 21 59 46 67 55 7 10 24 17 37 17 13 0 24 5 24 11 0 30
184 179 221 179 7 0 20 6 28 13 9 7 59 32 111 54 103 44 147 47 201 14 l27
-16 -49 -25 c-57 -28 -64 -45 -15 -37 19 3 39 0 45 -6 12 -12 15 -13 64 -15
17 -1 41 -14 59 -32 16 -17 41 -33 55 -36 20 -5 24 -11 20 -31 -6 -30 26 -63
53 -56 15 4 18 1 13 -16 -3 -13 0 -23 10 -27 9 -3 19 -19 22 -35 4 -16 11 -29
16 -29 8 0 44 -49 75 -102 6 -10 18 -24 26 -31 8 -7 26 -47 39 -89 25 -81 49
-103 49 -45 0 30 -24 145 -51 247 -11 45 -49 140 -59 150 -10 10 -30 50 -30
61 0 6 -12 26 -27 44 -16 18 -41 48 -56 66 -16 19 -39 59 -51 90 -32 80 -95
169 -141 201 -41 28 -75 36 -75 18 0 -18 -26 -10 -68 21 -23 17 -42 26 -42 20
0 -5 5 -13 10 -16 6 -3 10 -15 10 -26 0 -23 -24 -25 -62 -5 -32 17 -34 14 -12
-19 l15 -23 -51 1 c-39 2 -56 8 -69 23 -9 11 -24 23 -33 27 -10 3 -18 13 -18
22 0 19 9 19 31 -1 16 -14 18 -14 24 5 7 22 39 29 50 11 12 -20 27 -10 21 14
-4 17 -1 26 11 30 14 6 15 9 2 20 -25 23 -254 90 -271 79 -5 -2 -23 0 -41 6
-40 13 -154 19 -187 11 -14 -4 -34 -1 -45 6 -17 11 -32 9 -90 -7 -38 -11 -79
-22 -90 -25 -65 -18 -199 -76 -329 -142 -82 -41 -211 -164 -221 -211 -3 -16
-25 -60 -48 -98 -47 -79 -53 -105 -92 -428 -30 -251 -26 -293 65 -585 47 -152
69 -230 73 -260 1 -11 -9 -15 -41 -16 -64 -3 -88 -11 -99 -36 -25 -59 21 -235
86 -327 22 -30 28 -61 12 -61 -5 0 -11 7 -15 15 -3 8 -12 15 -20 15 -13 0 -12
-7 4 -44 16 -39 17 -46 4 -57 -12 -10 -21 -4 -53 29 -22 22 -42 38 -45 35 -3
-4 -6 -26 -6 -50 0 -39 -2 -43 -24 -43 -14 0 -27 -4 -30 -9 -7 -10 17 -21 45
-21 37 0 9 -19 -38 -26 -29 -4 -53 -3 -65 5 -14 9 -18 8 -18 -4 0 -10 10 -15
29 -15 16 0 34 -7 41 -15 8 -9 21 -13 36 -9 22 6 24 3 24 -35 0 -36 3 -41 23
-41 12 0 30 9 40 20 9 11 21 20 27 20 17 0 23 -27 11 -48 -8 -15 -7 -23 5 -33
12 -10 18 -8 30 10 13 17 19 20 30 10 23 -19 17 -74 -11 -107 l-25 -30 23 -15
c31 -20 102 -26 161 -15 37 8 55 7 75 -3 37 -19 41 -28 40 -79 -1 -25 2 -71 6
-102 7 -53 6 -58 -12 -58 -10 0 -39 -20 -63 -45 -35 -36 -51 -45 -78 -45 -25
0 -35 -5 -39 -19 -3 -11 -13 -21 -24 -24 -28 -8 -33 -33 -14 -73 13 -27 14
-42 7 -64 -12 -33 -126 -205 -144 -217 -31 -20 -113 -40 -120 -30 -4 6 -4 15
-2 19 8 12 -42 32 -61 24 -12 -4 -15 -13 -11 -26 3 -11 9 -28 12 -39 4 -13 -3
-24 -29 -40 -36 -22 -93 -29 -81 -10 4 7 -1 9 -12 7 -11 -2 -18 -11 -18 -20 1
-13 -4 -14 -35 -5 -52 15 -64 27 -57 57 3 15 0 32 -6 38 -17 17 0 62 30 74
l27 12 -31 4 c-21 2 -36 11 -44 28 -12 21 -21 24 -64 24 -40 0 -56 -5 -69 -20
-16 -19 -19 -20 -39 -5 -25 16 -88 20 -104 6 -28 -27 -104 -58 -133 -53 -36 5
-36 4 -16 -34 10 -20 15 -23 15 -11 0 47 60 -6 67 -61 5 -40 4 -42 -28 -56
-29 -12 -31 -16 -16 -22 26 -10 39 -48 27 -80 -7 -19 -7 -31 1 -40 9 -11 7
-15 -5 -20 -22 -8 -35 5 -16 16 12 7 12 10 -3 16 -10 3 -25 20 -33 36 -11 21
-21 28 -37 26 -14 -2 -22 2 -22 12 0 8 10 16 23 18 22 3 29 21 15 36 -5 4 -8
18 -8 29 0 13 -6 21 -13 19 -17 -3 -52 16 -52 29 0 7 16 8 45 5 30 -5 45 -3
45 5 0 6 -7 8 -15 5 -11 -4 -19 3 -25 19 -6 16 -17 25 -30 25 -25 0 -37 25
-21 44 6 7 8 16 4 20 -4 4 -8 19 -8 34 0 15 -4 33 -9 40 -4 7 -5 31 -1 53 7
40 7 40 -22 34 -49 -11 -53 -14 -53 -35 0 -17 -5 -21 -27 -18 -26 3 -28 6 -25
40 1 20 -4 52 -12 71 -12 31 -19 35 -62 40 -27 3 -50 4 -52 2 -9 -9 24 -54 44
-59 13 -4 24 -11 24 -16 0 -6 -13 -4 -29 5 -17 8 -38 14 -48 13 -28 -2 -83 13
-83 24 0 5 5 6 10 3 6 -4 10 8 10 29 0 28 4 36 18 36 12 1 3 13 -28 40 l-45
39 -17 -22 c-10 -12 -18 -28 -18 -35 0 -10 -5 -10 -21 -2 -19 10 -20 18 -15
73 7 84 8 87 21 87 7 0 24 -9 37 -20 14 -10 28 -17 30 -14 3 2 16 0 29 -5 20
-7 28 -4 45 17 l21 26 37 -22 c20 -12 39 -22 42 -22 2 0 4 22 4 49 0 52 -31
121 -54 121 -16 0 -46 32 -46 48 0 7 11 12 25 12 35 0 75 21 75 40 0 9 5 21
11 27 8 8 6 18 -6 37 -17 26 -17 26 7 26 21 0 30 11 57 68 17 38 31 78 31 90
0 26 -36 52 -72 52 -35 0 -43 -14 -24 -42 17 -28 5 -68 -21 -68 -28 0 -63 29
-63 51 0 13 7 19 23 19 33 0 35 5 24 54 -8 38 -7 50 13 90 12 26 20 49 18 52
-3 2 -17 -5 -31 -17 -15 -11 -37 -19 -49 -17 -30 4 -43 69 -22 112 8 16 12 31
10 33 -2 2 -24 -6 -50 -17 -26 -11 -54 -20 -61 -20 -20 0 -35 32 -36 77 0 21
-3 31 -6 23 -2 -8 -9 -24 -13 -35 -5 -11 -11 -38 -12 -60 l-3 -40 -85 -6 c-59
-4 -90 -2 -100 6 -8 7 -24 15 -35 19 -19 8 -19 8 3 17 12 4 22 17 22 27 0 11
7 25 15 32 19 15 19 25 1 43 -8 8 -11 19 -6 26 5 9 11 3 18 -19 12 -34 21 -33
70 9 21 18 31 38 14 27 -5 -3 -21 6 -36 19 -24 21 -28 30 -24 69 2 30 -1 47
-9 50 -7 3 -15 17 -19 31 -6 23 -24 36 -24 16 0 -15 -40 0 -50 19 -12 23 -45
36 -36 15 8 -21 -3 -45 -22 -45 -13 0 -12 -3 3 -20 17 -19 17 -20 1 -20 -10 0
-20 9 -23 20 -5 19 -11 20 -51 14 -25 -4 -52 -7 -61 -8 -9 0 -19 -9 -23 -19
-5 -10 -14 -17 -20 -15 -17 6 -17 43 0 44 6 1 17 2 24 3 23 2 -2 14 -36 16
-28 3 -34 0 -29 -13 4 -10 2 -13 -6 -8 -6 4 -19 2 -27 -5 -12 -9 -18 -8 -35 7
-12 11 -24 18 -28 16 -3 -1 -7 7 -7 19 -2 33 -21 45 -41 27 -12 -10 -29 -14
-49 -11 -18 3 -34 1 -38 -5 -10 -16 -57 -1 -65 21 -4 11 -5 34 -2 51 5 24 13
32 33 34 28 3 44 28 29 46 -17 21 -28 82 -22 119 l6 36 33 -21 c32 -20 32 -21
16 -45 -8 -14 -14 -33 -11 -43 2 -9 1 -24 -4 -32 -13 -23 16 -45 36 -28 8 7
15 19 15 26 0 13 11 18 36 15 7 -1 15 9 18 21 18 58 23 88 16 88 -5 0 -11 9
-15 19 -5 16 -14 19 -68 17 -59 -2 -64 -1 -94 32 -18 18 -33 37 -33 42 0 15
-72 80 -89 80 -25 0 -41 14 -46 39 -2 12 0 19 6 16 5 -4 9 5 9 19 0 33 14 40
43 21 13 -8 27 -12 30 -8 4 3 16 -2 26 -11 11 -10 30 -16 43 -14 21 3 23 8 21
50 -1 44 1 48 32 62 43 21 51 20 68 -4 12 -18 18 -19 43 -10 24 9 31 8 41 -6
15 -21 17 -44 3 -44 -5 0 -13 0 -17 0 -5 0 -8 5 -8 10 0 25 -20 12 -27 -18 -6
-23 -5 -37 4 -46 13 -14 31 -38 48 -66 19 -31 26 3 18 85 -3 28 -1 30 30 28
42 -1 71 35 54 70 -6 12 -12 37 -15 55 -3 27 0 32 18 32 34 0 59 34 49 67 -4
15 -8 34 -9 41 0 7 -7 18 -15 23 -13 9 -12 10 2 6 9 -3 19 -1 22 6 3 8 9 7 19
-5 8 -11 28 -18 48 -18 32 0 43 7 68 48 6 11 24 12 86 5 74 -9 77 -9 87 13 16
34 3 57 -27 52 -14 -3 -33 1 -42 8 -24 18 -43 17 -82 -2 -31 -15 -66 -15 -103
1 -15 6 -18 2 -18 -19 0 -15 -7 -29 -15 -32 -23 -9 -74 16 -93 45 -9 14 -23
31 -31 37 -16 13 -8 45 11 42 7 -2 17 -11 23 -22 13 -24 31 -21 27 5 -2 14 6
23 30 34 18 8 30 15 26 16 -5 1 -12 3 -18 4 -5 1 -21 3 -35 4 -31 1 -33 28 -2
33 l22 3 -25 15 c-14 8 -25 24 -25 34 0 10 -7 22 -15 26 -30 14 -66 33 -89 49
-24 15 -24 15 -19 -12 7 -37 -10 -45 -23 -10 -6 15 -18 36 -27 46 -16 18 -17
34 -9 161 1 19 5 32 10 29 4 -2 7 3 7 12 0 9 7 27 16 40 14 21 15 32 5 71 -13
53 -8 68 25 61 12 -2 28 -1 35 3 16 10 1 33 -18 26 -9 -4 -13 -1 -11 6 2 6 13
13 24 14 10 2 38 8 61 15 23 6 58 9 77 7 28 -3 36 0 36 12 0 8 -9 21 -21 28
-13 8 -19 21 -17 35 4 31 55 35 85 7 30 -27 37 -25 30 10 -7 34 15 64 43 55
11 -4 23 3 34 20 9 14 15 26 14 26 -3 1 -33 6 -88 12 -37 5 -38 6 -21 72 9 37
8 42 -17 62 -15 12 -33 22 -41 23 -8 0 -24 9 -36 20 -24 23 -115 33 -122 13
-2 -6 16 -31 41 -56 50 -49 55 -63 29 -83 -35 -26 -113 -5 -113 30 0 19 -37
49 -53 43 -16 -6 -50 29 -42 43 4 6 13 7 23 1 18 -9 56 1 66 18 4 6 -2 16 -13
22 -10 7 -17 19 -14 26 3 8 -2 13 -15 13 -24 0 -39 17 -44 49 -5 38 -33 49
-69 29 -28 -16 -32 -16 -55 -2 -13 9 -24 12 -25 8 0 -5 -4 0 -8 11 -5 11 -9
74 -10 139 0 66 -3 122 -6 124 -3 3 2 13 10 22 9 10 19 34 22 54 l6 36 -71 0
c-65 0 -72 -2 -95 -29 l-25 -30 -6 30 c-4 21 -11 29 -27 29 -19 0 -20 -4 -14
-40 6 -36 5 -40 -19 -46 -28 -7 -56 9 -56 31 0 8 12 23 26 34 l27 21 -172 0
-171 0 0 -94z m440 -76 c23 -12 16 -47 -12 -56 -26 -8 -31 -1 -23 35 7 34 9
35 35 21z m-92 -12 c22 -22 13 -49 -30 -94 -45 -47 -58 -53 -58 -29 0 10 7 15
18 13 14 -3 17 5 17 50 1 35 6 56 15 62 20 13 24 12 38 -2z m15 -104 c9 -10
-4 -34 -19 -34 -8 0 -14 6 -14 13 0 22 19 35 33 21z m280 -163 c8 -37 0 -126
-14 -172 -19 -61 -80 -80 -124 -39 -55 51 -129 23 -118 -45 8 -47 -3 -82 -27
-88 -30 -8 -28 -57 3 -57 56 -1 62 -53 7 -64 -24 -4 -36 1 -66 28 -26 24 -35
40 -32 54 8 30 -43 57 -74 40 -13 -7 -24 -14 -26 -15 -9 -4 20 -43 32 -43 14
0 26 -21 26 -46 0 -8 -9 -14 -20 -14 -15 0 -20 -6 -19 -22 4 -49 -2 -79 -17
-85 -24 -9 -40 12 -27 39 16 35 16 81 -1 75 -17 -7 -27 35 -17 72 9 34 3 61
-15 61 -8 0 -14 7 -14 15 0 8 6 15 14 15 15 0 31 34 45 98 10 49 32 69 119
112 34 16 62 35 62 40 0 22 40 -12 55 -45 7 -19 21 -35 29 -35 18 0 53 36 61
61 7 22 55 74 75 82 8 3 29 6 46 6 27 1 32 -3 37 -28z m396 -224 c6 -8 8 -17
4 -20 -7 -8 -33 11 -33 24 0 13 16 11 29 -4z m-460 -151 c9 -11 9 -19 -1 -35
-7 -12 -17 -21 -22 -21 -17 0 -46 33 -46 52 0 22 51 25 69 4z m-103 -123 c7
-26 7 -26 15 -5 11 29 23 28 37 -2 6 -14 18 -23 29 -23 26 3 28 -58 2 -84 -10
-10 -19 -25 -19 -32 0 -19 -21 -37 -42 -37 -23 0 -24 37 -2 61 21 23 13 45
-20 53 -29 7 -69 -17 -116 -68 -29 -32 -60 -31 -60 2 0 10 -16 33 -35 52 -19
18 -32 37 -29 42 3 4 27 8 53 8 32 0 53 5 61 15 9 11 22 14 42 10 24 -6 28 -3
28 14 0 34 48 29 56 -6z m103 -221 c-1 -15 2 -39 6 -54 7 -26 5 -28 -21 -28
-44 0 -58 13 -45 39 7 11 16 21 21 21 6 0 10 11 10 23 0 13 3 27 6 30 12 12
24 -4 23 -31z m3570 -17 c14 -13 22 -27 19 -30 -6 -6 -95 42 -104 57 -13 21
61 -2 85 -27z m-3418 4 c10 -20 9 -21 -17 -15 -35 9 -38 12 -29 25 10 18 34
12 46 -10z m147 -276 c6 -20 10 -39 7 -41 -8 -9 -25 10 -25 28 0 10 -4 22 -10
25 -14 9 -12 25 3 25 8 0 19 -17 25 -37z m-63 -42 c-10 -16 -25 -3 -25 22 0
20 1 20 16 5 9 -9 13 -21 9 -27z m-602 -116 c15 -10 25 -11 42 -3 25 11 27 11
90 -25 43 -24 52 -52 23 -71 -13 -8 -23 -8 -38 2 -26 16 -40 15 -40 -3 0 -8 5
-15 10 -15 6 0 10 -7 10 -15 0 -9 -10 -15 -26 -15 -20 0 -24 4 -19 19 4 13 0
20 -12 23 -32 8 -38 7 -35 -8 3 -17 -3 -18 -29 -4 -13 8 -19 21 -19 46 0 33
-2 36 -24 30 -19 -5 -26 -1 -31 15 -5 14 -2 25 6 30 21 13 72 10 92 -6z m-75
-95 c10 -17 10 -21 -2 -26 -21 -8 -36 3 -36 27 0 25 22 24 38 -1z m462 -16 c0
-16 -16 -19 -25 -4 -8 13 4 32 16 25 5 -4 9 -13 9 -21z m-31 -201 c11 -10 26
-24 35 -30 12 -10 13 -19 4 -44 -13 -37 -31 -45 -64 -31 -25 12 -32 40 -13 59
8 8 8 17 0 31 -6 11 -11 23 -11 26 0 13 31 5 49 -11z m-269 -368 c-12 -15 -30
-12 -30 6 0 5 10 9 21 9 18 0 19 -2 9 -15z m-210 -41 c0 -14 -40 -20 -40 -6 0
4 -3 18 -7 31 -6 23 -6 23 21 6 14 -9 26 -24 26 -31z m420 -31 c0 -20 -28 -16
-39 5 -15 27 9 49 26 25 7 -9 13 -23 13 -30z m114 -75 c23 -32 20 -39 -11 -25
-31 13 -44 27 -37 39 9 15 33 8 48 -14z m-471 -49 c8 -13 6 -21 -6 -33 -22
-22 -29 -20 -60 15 -22 25 -25 34 -16 50 10 20 11 20 41 2 17 -10 36 -25 41
-34z m95 -71 c17 -17 15 -38 -3 -38 -16 0 -38 34 -28 44 9 9 18 7 31 -6z
m-103 -88 c18 -7 33 -7 45 0 27 15 120 -16 120 -39 0 -9 5 -22 12 -29 6 -6 9
-14 6 -18 -8 -8 -174 21 -218 38 -55 21 -63 28 -49 44 13 16 47 18 84 4z m260
-80 c3 -5 -1 -10 -9 -10 -9 0 -16 5 -16 10 0 6 4 10 9 10 6 0 13 -4 16 -10z
m-185 -70 c13 -9 13 -10 0 -10 -13 0 -13 -1 0 -10 13 -8 13 -10 -2 -10 -10 0
-22 9 -28 20 -12 22 3 27 30 10z m859 -81 c17 -14 21 -23 14 -30 -13 -13 -63
16 -63 37 0 20 21 17 49 -7z m160 -34 c14 -13 11 -15 -29 -14 -25 1 -56 6 -70
12 -24 9 -24 10 -5 18 27 12 85 3 104 -16z m-822 -297 c-3 -8 -6 -5 -6 6 -1
11 2 17 5 13 3 -3 4 -12 1 -19z m13 -28 c0 -5 -7 -10 -15 -10 -8 0 -15 5 -15
10 0 6 7 10 15 10 8 0 15 -4 15 -10z m2450 -20 c0 -5 -7 -10 -15 -10 -8 0 -15
5 -15 10 0 6 7 10 15 10 8 0 15 -4 15 -10z m91 -16 c11 -14 10 -18 -6 -30 -10
-8 -22 -14 -26 -14 -14 0 -29 28 -23 44 8 21 38 21 55 0z m54 -40 c18 -44 18
-44 1 -44 -15 0 -39 57 -30 71 9 15 13 11 29 -27z m-1215 -23 c0 -14 -18 -23
-31 -15 -8 4 -7 9 2 15 18 11 29 11 29 0z m-113 -47 c-9 -9 -28 6 -21 18 4 6
10 6 17 -1 6 -6 8 -13 4 -17z m1387 -80 c17 -7 23 -54 6 -54 -10 0 -30 32 -30
49 0 13 3 13 24 5z m-2124 -59 l21 -22 -31 1 c-17 1 -30 6 -30 14 0 6 -4 12
-10 12 -5 0 -10 6 -10 14 0 20 33 9 60 -19z m745 15 c3 -5 -1 -10 -9 -10 -9 0
-16 5 -16 10 0 6 4 10 9 10 6 0 13 -4 16 -10z m-625 -30 c9 -6 11 -13 5 -17
-5 -5 -10 -14 -11 -20 -2 -28 -4 -33 -14 -33 -5 0 -18 10 -30 22 -18 20 -19
23 -3 40 18 20 31 22 53 8z m477 -22 c37 -35 24 -72 -28 -80 -20 -2 -25 3 -33
33 -16 67 15 91 61 47z m-133 -180 c19 -27 20 -38 1 -62 -12 -16 -18 -17 -44
-7 -21 9 -30 21 -34 44 -6 41 -2 47 33 47 18 0 34 -8 44 -22z m74 -216 c3 -9
-2 -13 -14 -10 -9 1 -19 9 -22 16 -3 9 2 13 14 10 9 -1 19 -9 22 -16z m50
-100 c-27 -5 -34 4 -18 23 11 14 14 13 26 -2 11 -16 10 -18 -8 -21z m216 -123
c11 -33 0 -79 -19 -79 -19 0 -47 43 -40 64 3 9 7 23 10 32 7 23 38 13 49 -17z
m-43 -112 c-13 -13 -26 -3 -16 12 3 6 11 8 17 5 6 -4 6 -10 -1 -17z m-41 -27
c0 -11 5 -20 11 -20 5 0 7 -5 3 -12 -5 -7 -11 -5 -21 7 -15 22 -17 45 -3 45 6
0 10 -9 10 -20z m144 -16 c3 -9 -2 -23 -12 -32 -11 -10 -25 -36 -32 -60 -13
-40 -15 -42 -42 -37 -32 7 -35 0 -11 -27 15 -17 15 -20 -6 -42 -13 -14 -29
-22 -37 -19 -8 3 -14 -1 -14 -11 0 -9 -5 -25 -12 -36 -10 -16 -9 -23 10 -43
12 -13 22 -28 22 -34 0 -14 39 -48 47 -40 3 4 1 19 -6 33 -21 47 16 63 46 18
l17 -26 8 22 c5 14 4 28 -3 36 -12 15 -4 34 15 34 7 0 21 -9 31 -20 26 -29 59
-26 74 7 10 21 9 28 -1 34 -20 13 5 31 38 27 37 -4 42 -25 8 -39 -23 -8 -25
-12 -14 -20 8 -5 31 -8 50 -7 l35 3 0 -54 0 -54 -50 -22 c-27 -13 -75 -29
-105 -35 -30 -7 -65 -19 -78 -27 -21 -13 -47 -10 -38 5 2 4 -2 16 -10 27 -11
15 -26 19 -67 18 -28 0 -59 -3 -67 -6 -48 -17 -69 -17 -79 2 -8 14 -7 20 4 25
10 3 15 19 15 44 0 26 7 45 20 57 23 21 20 62 -6 100 -19 27 -18 49 2 41 13
-5 15 -1 11 16 -3 13 0 31 8 41 7 10 11 27 8 37 -5 18 0 20 46 20 34 0 51 4
51 13 0 6 8 -3 16 -20 9 -18 20 -33 25 -33 8 0 14 31 10 53 -1 5 3 6 9 2 5 -3
10 2 10 13 0 10 3 22 7 25 12 13 41 7 47 -9z m66 -34 c0 -5 -2 -10 -4 -10 -3
0 -8 5 -11 10 -3 6 -1 10 4 10 6 0 11 -4 11 -10z m432 -139 c16 -2 37 -33 32
-46 -3 -7 -54 -37 -112 -66 -59 -28 -109 -55 -112 -59 -3 -5 -18 -12 -34 -16
-25 -6 -27 -5 -18 12 6 11 20 28 31 38 12 11 21 29 21 41 0 21 17 45 32 45 4
0 8 -7 8 -15 0 -21 43 -29 84 -15 41 13 44 23 16 47 -38 33 -19 46 52 34z
m-852 -69 c0 -9 9 -26 21 -38 26 -28 16 -52 -10 -26 -40 38 -63 123 -25 91 8
-6 14 -18 14 -27z m780 28 c0 -5 -4 -10 -9 -10 -6 0 -13 5 -16 10 -3 6 1 10 9
10 9 0 16 -4 16 -10z m-372 -17 c2 -8 -5 -13 -17 -13 -21 0 -35 13 -24 24 10
10 36 3 41 -11z m-1533 -32 c10 -31 31 -44 53 -32 27 14 47 -11 44 -53 -4 -40
10 -52 72 -61 27 -3 55 -9 62 -12 20 -7 17 -36 -5 -62 -11 -13 -17 -30 -14
-42 5 -20 3 -20 -88 -12 -52 4 -113 8 -136 8 l-43 -1 0 73 0 73 50 0 c37 0 50
4 50 14 0 8 -9 18 -21 21 -11 4 -36 20 -54 36 -32 29 -33 31 -17 49 22 24 39
25 47 1z m215 -72 c0 -6 -4 -7 -10 -4 -5 3 -10 11 -10 16 0 6 5 7 10 4 6 -3
10 -11 10 -16z m1025 -187 c-3 -3 -11 0 -18 7 -9 10 -8 11 6 5 10 -3 15 -9 12
-12z m3435 8 c0 -5 -4 -10 -10 -10 -5 0 -10 5 -10 10 0 6 5 10 10 10 6 0 10
-4 10 -10z m-1313 -52 c28 -26 103 -123 103 -134 0 -4 -26 17 -57 47 -38 36
-81 65 -125 84 -38 15 -68 31 -68 35 0 3 27 3 61 -1 43 -5 68 -14 86 -31z
m-2037 23 c0 -12 -28 -22 -34 -12 -3 5 -3 11 1 15 9 9 33 7 33 -3z m-80 -36
c0 -9 -9 -15 -21 -15 -18 0 -19 2 -9 15 7 8 16 15 21 15 5 0 9 -7 9 -15z
m-1072 -30 c6 -3 12 -12 12 -20 0 -14 -9 -16 -67 -10 -88 9 -103 13 -103 31 0
13 12 14 73 9 39 -4 78 -8 85 -10z m-14 -104 c16 -4 32 -13 34 -20 4 -11 -12
-13 -79 -9 -82 4 -135 20 -124 37 5 9 121 4 169 -8z m814 -23 c9 -9 5 -18 -17
-37 -15 -14 -31 -34 -34 -43 -4 -10 -13 -18 -21 -18 -8 0 -20 -16 -26 -36 -7
-19 -17 -33 -23 -31 -17 6 -10 80 8 93 8 6 15 16 15 22 0 6 5 23 12 37 8 19
19 25 43 25 17 0 36 -5 43 -12z m-670 -131 c2 -12 -3 -17 -17 -17 -12 0 -21 6
-21 13 0 31 32 34 38 4z m4571 2 c-16 -10 -23 -4 -14 10 3 6 11 8 17 5 6 -4 5
-9 -3 -15z m591 -84 c0 -8 -5 -15 -11 -15 -5 0 -8 -4 -4 -9 3 -5 1 -12 -5 -16
-6 -4 -10 6 -10 24 0 21 5 31 15 31 8 0 15 -7 15 -15z m140 -31 c-9 -38 -17
-51 -26 -42 -10 11 8 78 21 78 10 0 11 -9 5 -36z m-60 -50 c0 -8 -4 -14 -10
-14 -5 0 -10 9 -10 21 0 11 5 17 10 14 6 -3 10 -13 10 -21z m-1930 -17 c0 -5
-4 -5 -10 -2 -5 3 -10 14 -10 23 0 15 2 15 10 2 5 -8 10 -19 10 -23z m2653
-61 c-6 -31 -33 -44 -33 -16 0 14 18 35 36 40 1 0 -1 -11 -3 -24z m-1189 -12
c8 -22 -4 -40 -15 -23 -11 18 -11 39 0 39 5 0 12 -7 15 -16z m1152 -45 c7 -11
-22 -47 -30 -38 -8 7 5 49 15 49 4 0 11 -5 15 -11z m-113 -73 c3 -8 3 -17 0
-20 -9 -9 -44 14 -38 25 9 14 32 11 38 -5z m-5670 -41 c7 -16 -8 -29 -23 -20
-10 6 -2 35 10 35 4 0 10 -7 13 -15z m157 -15 c0 -5 -2 -10 -4 -10 -3 0 -8 5
-11 10 -3 6 -1 10 4 10 6 0 11 -4 11 -10z m5465 -20 c3 -5 1 -10 -4 -10 -6 0
-11 5 -11 10 0 6 2 10 4 10 3 0 8 -4 11 -10z m-5722 -284 c15 -4 27 -13 27
-22 0 -13 -8 -15 -42 -9 -24 4 -46 9 -50 11 -14 8 5 35 21 30 9 -2 28 -7 44
-10z m5513 -178 c-9 -62 -22 -133 -28 -158 -6 -25 -14 -66 -19 -92 -4 -26 -12
-55 -18 -65 -8 -16 -10 -15 -15 7 -13 62 -13 79 0 84 8 3 14 16 14 29 0 13 5
39 11 56 9 24 9 35 0 44 -16 16 -14 27 5 27 12 0 15 6 10 22 -3 13 4 50 15 83
12 33 23 66 25 74 3 8 7 11 10 8 4 -3 -1 -57 -10 -119z m-6152 36 c8 -22 8
-24 -8 -24 -15 0 -28 24 -19 34 11 10 21 7 27 -10z m5776 -55 c0 -5 -10 -9
-21 -9 -18 0 -19 2 -9 15 12 15 30 12 30 -6z m202 -143 c22 -16 22 -16 -18
-16 -29 0 -46 6 -60 22 l-19 21 37 -6 c21 -3 48 -13 60 -21z m688 4 c0 -5 -6
-10 -14 -10 -8 0 -18 5 -21 10 -3 6 3 10 14 10 12 0 21 -4 21 -10z m-776 -226
c3 -9 6 -42 6 -75 0 -46 3 -59 15 -59 26 0 16 -25 -16 -39 -27 -12 -33 -12
-40 0 -13 21 -11 29 13 38 18 6 19 9 5 14 -13 5 -17 20 -17 65 0 32 3 62 7 65
11 11 20 8 27 -9z m1011 -24 c3 -5 -2 -10 -12 -11 -10 0 -30 -3 -45 -5 -34 -6
-37 3 -5 16 30 12 55 12 62 0z m-225 -61 c0 -15 -4 -19 -16 -15 -9 3 -20 6
-25 6 -5 0 -9 7 -9 15 0 9 9 15 25 15 19 0 25 -5 25 -21z m148 -37 c2 -7 -2
-10 -12 -6 -9 3 -16 11 -16 16 0 13 23 5 28 -10z m-2935 -24 c5 -16 -10 -48
-23 -48 -13 0 -32 38 -25 50 9 14 43 12 48 -2z m-3583 -68 c8 -5 11 -12 7 -16
-4 -4 -15 0 -24 9 -18 18 -8 23 17 7z m3524 -48 c-20 -31 -44 -3 -29 35 5 15
7 15 23 0 13 -14 14 -21 6 -35z m114 -19 c12 -9 22 -22 22 -30 0 -13 -8 -14
-42 -9 -67 11 -91 42 -67 87 10 20 11 20 37 -7 15 -14 37 -33 50 -41z m1922
53 c6 -8 21 -16 33 -18 27 -4 34 -39 12 -62 -19 -19 -71 -21 -78 -3 -2 6 0 20
5 30 5 11 7 30 4 43 -7 27 5 32 24 10z m-145 -21 c17 -8 39 -15 49 -17 11 -2
21 -9 24 -17 4 -11 0 -12 -14 -6 -11 4 -41 11 -67 15 -41 6 -50 4 -58 -12 -10
-18 -17 -20 -118 -20 -52 0 -82 22 -61 46 8 11 29 16 61 16 26 0 51 5 55 11 8
13 85 4 129 -16z m252 -58 c18 -19 12 -32 -12 -24 -11 5 -15 19 -14 54 2 34 3
39 6 18 3 -16 12 -38 20 -48z m-2202 43 c3 -5 1 -10 -4 -10 -6 0 -11 5 -11 10
0 6 2 10 4 10 3 0 8 -4 11 -10z m1615 -5 c17 -21 4 -36 -23 -25 -12 4 -30 11
-40 14 -10 3 -15 10 -12 16 9 15 61 12 75 -5z m500 -204 c20 -39 5 -120 -19
-96 -9 9 -14 56 -12 98 1 23 18 22 31 -2z m-5470 -9 c0 -4 -11 -9 -25 -10 -28
-2 -34 14 -7 21 19 4 32 0 32 -11z m6098 -40 c-2 -13 -14 -17 -43 -17 -47 0
-55 22 -16 42 30 14 64 0 59 -25z m-947 -103 c-2 -8 -6 -31 -9 -52 -5 -44 -26
-45 -29 -1 0 16 -2 35 -2 42 -1 7 -6 10 -11 7 -6 -4 -8 -14 -6 -23 3 -10 1
-24 -4 -32 -12 -18 -12 -18 -14 51 l-2 57 40 -18 c25 -11 39 -23 37 -31z m188
-31 c0 -31 -1 -31 -10 -10 -5 13 -7 28 -3 33 10 16 14 9 13 -23z"/>
<path d="M250 7006 c0 -21 20 -30 33 -17 9 9 8 14 -3 21 -21 14 -30 12 -30 -4z"/>
<path d="M1634 3044 c3 -9 6 -18 6 -20 0 -2 7 -4 15 -4 13 0 13 3 3 20 -15 24
-33 27 -24 4z"/>
<path d="M450 2876 c0 -15 69 -28 84 -16 16 15 -6 30 -45 30 -27 0 -39 -4 -39
-14z"/>
<path d="M6668 7448 c-1 -134 -2 -256 -1 -273 7 -355 6 -380 -12 -417 -17 -34
-17 -40 -2 -80 19 -52 20 -56 18 -190 -1 -94 -4 -111 -21 -128 -11 -11 -20
-31 -20 -45 0 -14 8 -29 20 -35 19 -10 20 -21 20 -344 l0 -334 -25 -16 c-36
-24 -33 -96 5 -96 16 0 18 -12 22 -105 2 -58 2 -123 0 -145 -4 -44 -17 -50
-111 -52 l-51 -1 -1 -66 c-5 -223 -4 -343 2 -347 4 -2 37 -8 74 -13 37 -6 72
-14 77 -19 6 -6 11 -73 11 -149 2 -128 0 -143 -22 -191 l-24 -52 -51 0 c-28 0
-67 4 -86 10 -22 6 -45 7 -65 0 -16 -5 -128 -12 -247 -15 -119 -3 -224 -8
-232 -11 -21 -8 -20 -21 4 -51 12 -16 20 -41 20 -64 0 -51 8 -69 32 -69 10 0
16 -5 13 -10 -4 -6 -10 -8 -15 -5 -22 14 -33 -31 -34 -145 -1 -111 0 -120 18
-120 12 0 16 -5 12 -16 -3 -9 -6 -18 -6 -20 0 -2 -6 -4 -14 -4 -10 0 -15 -22
-18 -82 -6 -106 -4 -183 5 -183 8 0 33 43 66 111 10 23 24 44 29 48 5 3 7 36
4 75 -4 63 -3 70 17 80 17 10 23 8 33 -9 7 -11 19 -20 27 -20 8 0 28 -15 43
-32 16 -18 27 -27 23 -20 -3 6 -2 12 3 12 5 0 9 6 9 14 0 26 25 76 39 76 8 0
14 6 14 14 0 8 -7 12 -17 10 -13 -3 -23 6 -34 28 -12 25 -23 34 -47 36 -28 3
-32 0 -32 -20 0 -16 -3 -19 -9 -10 -11 18 -22 -8 -16 -38 3 -16 0 -20 -11 -16
-9 3 -19 6 -23 6 -9 0 -33 115 -34 164 -1 42 7 53 46 60 36 6 95 -28 103 -59
3 -14 11 -22 19 -19 14 6 28 44 17 44 -8 0 -4 138 5 160 4 11 9 7 18 -15 11
-24 11 -34 1 -50 -17 -27 -4 -62 29 -77 27 -12 29 -16 16 -37 -6 -9 -2 -20 10
-32 15 -15 17 -24 9 -45 -6 -14 -7 -30 -4 -35 3 -6 0 -17 -7 -25 -10 -13 -10
-17 0 -23 7 -5 12 -12 12 -17 -1 -5 6 -17 15 -28 20 -24 44 -80 44 -103 0 -13
-2 -15 -8 -5 -5 7 -15 10 -23 7 -17 -7 -43 -45 -30 -45 10 0 9 -19 -2 -37 -5
-7 -5 -18 -2 -23 3 -6 -1 -13 -9 -16 -9 -3 -16 -15 -16 -25 0 -10 -7 -19 -15
-19 -18 0 -18 -1 -6 -34 8 -18 6 -28 -5 -37 -10 -8 -11 -15 -4 -24 5 -6 7 -14
4 -17 -2 -3 3 -8 12 -12 13 -5 15 -2 10 21 -4 16 -3 23 1 18 10 -13 43 -12 67
2 12 7 38 5 82 -5 57 -13 67 -13 82 1 9 8 31 15 49 15 17 0 45 7 61 16 l29 15
13 -55 c19 -77 8 -86 -85 -72 -74 11 -623 15 -649 5 -10 -4 -13 -13 -9 -23 5
-14 18 -15 92 -10 47 4 95 6 106 5 84 -6 362 -6 383 0 15 4 56 5 92 2 57 -5
65 -9 68 -28 2 -15 -5 -26 -24 -36 l-28 -14 28 -28 c29 -29 32 -50 28 -173 -2
-46 -5 -54 -27 -62 -16 -6 -25 -17 -25 -30 0 -15 -5 -20 -17 -18 -10 2 -18 9
-18 17 0 16 -115 22 -255 12 l-95 -6 77 -33 c65 -27 87 -32 142 -29 37 2 71
-2 76 -7 13 -13 13 -46 -1 -46 -6 0 -4 -7 5 -15 21 -21 23 -19 30 20 9 44 43
66 62 40 8 -10 12 -21 10 -24 -3 -4 -7 -25 -10 -47 -7 -45 -19 -34 148 -143
21 -14 74 -60 117 -103 74 -73 109 -92 124 -68 3 6 15 10 27 10 18 0 16 3 -12
30 -21 20 -30 37 -28 52 3 22 7 23 88 24 90 0 225 13 217 20 -2 2 -55 7 -118
9 -130 6 -179 13 -179 23 0 12 103 44 136 42 48 -3 64 -1 61 11 -1 6 4 14 12
17 10 3 12 0 8 -12 -5 -12 0 -16 21 -16 78 0 490 -10 507 -12 11 -2 22 2 25 7
3 6 -7 11 -22 13 -19 2 -28 10 -30 25 -3 21 -7 22 -95 19 -84 -3 -93 -2 -94
15 -1 10 -3 32 -4 49 -5 52 6 59 106 64 91 5 93 6 102 33 5 16 7 30 5 32 -3 3
-685 8 -765 5 -17 0 -17 -57 -1 -62 10 -4 7 -17 -9 -49 -12 -24 -24 -57 -25
-74 l-3 -30 -25 35 c-13 19 -17 29 -8 22 14 -11 16 -8 16 28 1 36 -2 40 -31
48 -21 6 -32 15 -31 25 1 10 -2 17 -7 17 -5 0 -9 5 -9 10 0 6 7 10 15 10 21 0
19 17 -5 30 -18 10 -20 21 -20 105 0 89 2 97 25 117 14 12 25 27 25 35 0 7 12
20 28 30 15 10 36 26 46 35 21 19 53 21 306 18 77 -1 110 3 124 13 19 14 19
15 -10 21 -16 3 -110 5 -210 4 -99 -1 -185 2 -192 6 -6 4 -43 7 -81 7 -65 0
-70 2 -75 25 -8 31 -22 31 -30 0 -6 -26 -42 -44 -57 -29 -5 5 -10 62 -13 128
-2 66 -5 125 -6 130 -1 6 -2 20 -1 33 1 19 7 22 40 22 22 0 41 -5 44 -12 4
-10 7 -10 18 0 8 7 9 12 2 12 -7 0 -14 39 -18 103 -6 83 -4 110 9 141 9 21 16
47 16 58 0 10 4 16 10 13 5 -3 7 0 4 8 -7 19 17 24 143 33 l102 7 6 -37 c4
-20 4 -48 0 -63 -8 -29 -12 -85 -19 -245 -2 -53 -7 -101 -10 -107 -4 -6 -2
-20 5 -32 8 -17 8 -20 -1 -14 -7 4 -4 -4 5 -19 10 -15 13 -26 6 -26 -6 0 -11
4 -11 10 0 6 -9 6 -26 0 -14 -6 -31 -7 -37 -3 -6 4 -8 0 -4 -10 4 -11 1 -17
-7 -17 -19 0 -29 -30 -16 -45 6 -7 20 -10 32 -7 14 3 19 1 14 -6 -10 -16 54
-20 87 -4 15 7 36 12 45 11 16 -2 77 7 115 18 9 2 17 13 17 24 0 10 9 28 20
39 11 11 22 31 26 45 3 14 9 25 13 25 4 0 7 10 7 23 -1 17 5 22 24 23 43 2 46
4 46 24 0 13 -7 20 -19 20 -12 0 -16 4 -11 13 5 8 2 7 -9 -2 -15 -12 -19 -12
-32 5 -8 10 -12 25 -10 33 3 7 1 19 -5 26 -12 14 10 37 32 34 33 -4 39 2 36
33 -2 23 -9 34 -22 36 -11 2 -16 0 -12 -6 3 -6 2 -13 -4 -17 -5 -3 -10 3 -10
14 0 11 -4 22 -8 25 -5 3 -7 18 -4 34 3 25 10 30 48 39 24 6 41 6 38 2 -8 -14
10 -10 34 7 13 9 21 22 18 30 -3 8 -2 14 3 14 13 0 21 39 9 46 -6 4 -8 22 -5
42 4 19 3 32 0 28 -3 -3 -11 1 -17 10 -10 13 -15 13 -44 -2 -37 -18 -84 -12
-76 10 7 19 44 27 83 20 24 -5 31 -3 31 9 0 23 39 32 54 12 10 -14 14 -11 30
25 10 23 15 44 12 47 -16 16 -461 26 -539 12 -72 -13 -177 -2 -177 18 0 7 -8
30 -19 51 -27 55 -35 125 -17 159 12 24 12 31 0 48 -16 21 -11 109 6 130 6 7
26 16 44 19 19 4 37 14 40 22 8 20 8 228 0 248 -16 41 -24 6 -24 -99 0 -111
-2 -118 -30 -117 -3 0 -16 3 -29 7 -16 5 -21 4 -17 -4 5 -7 -7 -11 -36 -10
-24 0 -37 3 -30 6 6 2 12 11 12 18 0 18 -21 24 -47 12 -13 -6 -19 -15 -16 -24
5 -11 -9 -13 -73 -11 l-79 3 -3 164 c-2 112 1 167 9 171 6 4 84 8 175 9 141 1
164 -1 164 -14 0 -24 19 -17 26 10 9 35 -11 56 -42 45 -60 -23 -74 11 -67 163
6 108 8 118 29 132 35 23 34 87 -1 103 -30 14 -28 -4 -30 390 -1 252 3 308 19
266 8 -20 26 -8 26 17 0 11 5 17 10 14 10 -6 17 5 22 40 2 14 -3 20 -15 20
-18 0 -49 60 -49 95 0 27 25 105 36 113 7 5 4 6 -7 3 -10 -3 -21 -6 -23 -6 -3
0 -3 -4 0 -9 8 -12 -19 -45 -31 -38 -5 4 -10 40 -11 82 0 63 2 77 18 85 21 11
37 69 23 79 -11 7 -28 61 -24 76 2 6 3 67 2 137 -1 78 2 129 9 133 5 3 10 19
10 35 0 16 7 36 16 45 22 22 11 45 -18 37 -19 -4 -21 -3 -12 9 24 31 25 67 2
89 -22 20 -23 27 -19 153 1 73 6 139 11 146 4 8 4 26 -1 39 -5 13 -7 28 -3 33
3 5 -21 9 -55 9 l-61 0 -2 -242z m-43 -3214 c48 -7 48 -7 41 -32 -7 -22 -39
-39 -44 -24 -2 6 -12 7 -24 4 -16 -4 -19 -2 -13 9 6 11 5 11 -5 2 -15 -13
-137 -7 -157 9 -9 7 -10 22 -4 46 1 4 159 -7 206 -14z m375 1 c8 -2 33 -4 54
-4 61 -1 33 -17 -36 -20 -9 -1 -29 -12 -44 -26 -33 -30 -44 -32 -44 -5 0 11
-3 19 -7 18 -5 -1 -21 5 -36 12 l-29 14 39 12 c34 10 58 10 103 -1z m-684 -10
c-1 -8 -5 -17 -8 -21 -4 -3 -4 -12 -1 -20 3 -8 0 -14 -6 -14 -6 0 -11 9 -11
19 0 11 -5 23 -11 27 -8 4 -7 9 2 15 21 13 37 11 35 -6z m861 -77 c-4 -14 2
-17 29 -16 46 2 62 -16 70 -74 4 -27 13 -52 20 -55 8 -3 11 -9 8 -14 -3 -5 -1
-9 5 -9 5 0 8 -10 5 -22 -2 -13 -6 -79 -9 -146 -3 -68 -8 -128 -11 -133 -3 -5
0 -9 5 -9 20 0 11 -36 -14 -60 -23 -22 -70 -37 -59 -19 2 4 -10 10 -27 14 -28
6 -30 10 -27 41 1 21 -3 38 -10 43 -14 9 -13 81 1 81 5 0 7 -7 3 -15 -4 -11 1
-14 17 -13 18 2 23 8 21 28 -2 35 -3 35 -16 22 -24 -24 -35 -12 -37 45 -1 31
-5 61 -8 67 -11 16 -3 170 8 177 8 5 8 8 0 13 -12 8 -14 48 -4 85 6 23 7 23
20 5 8 -10 12 -27 10 -36z m-797 21 c0 -11 -4 -17 -10 -14 -5 3 -10 13 -10 21
0 8 5 14 10 14 6 0 10 -9 10 -21z m850 12 c0 -6 -4 -13 -10 -16 -5 -3 -10 1
-10 9 0 9 5 16 10 16 6 0 10 -4 10 -9z m-775 -71 c-3 -5 -1 -10 6 -10 8 0 10
-11 6 -35 -3 -19 -1 -37 4 -40 9 -6 13 8 10 33 -1 6 3 12 9 12 5 0 10 -9 10
-20 0 -12 7 -20 16 -20 14 0 14 3 4 15 -7 8 -9 15 -4 15 4 0 -1 7 -12 15 -18
15 -17 16 13 10 33 -7 53 8 29 22 -9 5 10 9 48 9 l62 2 18 -72 c14 -55 17
-102 14 -209 l-3 -139 -29 -23 c-16 -13 -44 -26 -62 -30 -22 -4 -31 -10 -28
-19 3 -7 -3 -16 -12 -20 -22 -8 -33 2 -14 14 11 7 11 11 1 24 -11 13 -11 17 3
22 15 6 15 8 -2 20 -10 7 -33 12 -50 12 -18 -1 -34 1 -36 3 -2 2 -5 38 -7 79
l-4 75 34 16 c31 15 33 19 35 71 l2 55 -35 9 c-33 8 -36 12 -38 49 -2 42 2 65
12 65 4 0 3 -4 0 -10z m1003 -45 c-10 -10 -49 -14 -43 -4 4 5 16 9 27 9 12 0
19 -2 16 -5z m-88 -325 c0 -5 -2 -10 -4 -10 -3 0 -8 5 -11 10 -3 6 -1 10 4 10
6 0 11 -4 11 -10z m-160 -790 c0 -47 -11 -54 -101 -65 -52 -6 -55 -6 -72 23
-16 29 -14 60 5 73 5 3 45 6 88 7 l80 2 0 -40z m301 22 c0 -9 2 -31 3 -48 5
-44 -5 -55 -55 -61 -24 -3 -49 -10 -56 -15 -7 -5 -14 -5 -18 2 -3 5 -16 10
-29 10 -12 0 -28 6 -34 12 -10 10 -14 10 -21 0 -5 -8 -20 -12 -36 -10 -24 3
-28 8 -31 41 -2 21 1 48 5 61 9 21 14 22 140 24 117 1 131 -1 132 -16z m-556
-142 c3 -5 1 -10 -4 -10 -6 0 -11 5 -11 10 0 6 2 10 4 10 3 0 8 -4 11 -10z m5
-35 c0 -8 -4 -15 -10 -15 -5 0 -10 7 -10 15 0 8 5 15 10 15 6 0 10 -7 10 -15z"/>
<path d="M926 7592 c-3 -6 5 -28 19 -49 22 -31 31 -37 55 -35 15 2 31 -2 35
-7 6 -11 55 38 55 56 0 15 -42 34 -70 32 -14 -1 -39 2 -56 6 -19 4 -34 3 -38
-3z"/>
<path d="M810 7211 c0 -12 29 -35 36 -28 11 10 -5 37 -21 37 -8 0 -15 -4 -15
-9z"/>
<path d="M1130 7033 c0 -5 4 -15 10 -23 11 -18 25 -7 17 15 -6 15 -27 21 -27
8z"/>
<path d="M1275 7021 c-6 -11 9 -23 19 -14 9 9 7 23 -3 23 -6 0 -12 -4 -16 -9z"/>
<path d="M1120 6320 c0 -5 12 -10 26 -10 14 0 23 4 19 10 -3 6 -15 10 -26 10
-10 0 -19 -4 -19 -10z"/>
<path d="M1510 6018 c-30 -12 -77 -22 -105 -22 -27 -1 -52 -5 -55 -11 -11 -23
52 -34 220 -39 96 -3 194 -8 216 -11 24 -4 44 -2 48 3 15 24 -175 103 -245
102 -13 -1 -49 -10 -79 -22z"/>
<path d="M1480 5666 c-10 -13 -9 -17 4 -22 22 -8 49 3 44 19 -7 18 -33 20 -48
3z"/>
<path d="M4910 5590 c0 -5 5 -10 11 -10 5 0 7 5 4 10 -3 6 -8 10 -11 10 -2 0
-4 -4 -4 -10z"/>
<path d="M1466 5544 c-3 -9 -4 -20 -1 -25 3 -4 -1 -19 -10 -32 l-15 -24 55 1
c51 0 55 2 55 24 0 24 -44 72 -65 72 -7 0 -16 -7 -19 -16z"/>
<path d="M1740 5496 c0 -17 14 -29 23 -20 8 8 -3 34 -14 34 -5 0 -9 -6 -9 -14z"/>
<path d="M946 5446 c-8 -33 -3 -42 27 -48 28 -5 27 12 -2 51 l-18 24 -7 -27z"/>
<path d="M1527 5444 c-11 -12 -8 -92 5 -100 14 -9 40 26 29 40 -4 6 -12 24
-17 39 -5 16 -13 25 -17 21z"/>
<path d="M4447 5439 c7 -7 15 -10 18 -7 3 3 -2 9 -12 12 -14 6 -15 5 -6 -5z"/>
<path d="M876 5391 c-10 -10 -19 -35 -21 -55 l-3 -36 31 18 c18 9 33 18 35 18
7 3 -10 74 -18 74 -4 0 -15 -9 -24 -19z"/>
<path d="M1658 5389 c-10 -10 -18 -28 -18 -38 0 -16 5 -18 28 -12 21 6 28 14
30 39 4 37 -13 41 -40 11z"/>
<path d="M1910 5346 c0 -23 4 -25 40 -23 22 1 40 5 40 10 0 4 -4 6 -9 2 -5 -3
-12 4 -16 15 -4 13 -15 20 -31 20 -19 0 -24 -5 -24 -24z"/>
<path d="M1256 5145 c-4 -10 1 -15 14 -15 11 0 20 7 20 15 0 8 -6 15 -14 15
-8 0 -16 -7 -20 -15z"/>
<path d="M5012 5107 c-37 -38 -39 -47 -13 -47 27 0 41 -21 57 -91 20 -86 28
-99 45 -68 15 29 15 162 -1 167 -5 2 -10 14 -10 26 0 24 -17 46 -35 46 -6 0
-25 -15 -43 -33z"/>
<path d="M6600 5122 c0 -22 19 -48 40 -54 18 -6 50 9 50 22 0 14 -59 42 -72
34 -7 -4 -8 -3 -4 4 4 7 2 12 -3 12 -6 0 -11 -8 -11 -18z"/>
<path d="M960 5106 c0 -9 5 -16 10 -16 6 0 10 4 10 9 0 6 -4 13 -10 16 -5 3
-10 -1 -10 -9z"/>
<path d="M1922 5098 c-17 -17 -15 -55 3 -62 46 -17 88 41 46 64 -25 13 -34 13
-49 -2z"/>
<path d="M2695 5085 c-33 -14 -67 -25 -75 -25 -11 -1 -11 -3 3 -11 30 -18 287
1 287 21 0 11 -93 40 -127 40 -15 0 -55 -12 -88 -25z"/>
<path d="M2400 5060 c0 -6 7 -10 15 -10 8 0 15 2 15 4 0 2 -7 6 -15 10 -8 3
-15 1 -15 -4z"/>
<path d="M6577 5053 c-9 -8 -9 -70 -1 -100 4 -16 14 -23 29 -23 13 0 31 -3 40
-6 13 -5 14 -8 3 -15 -9 -6 -5 -9 12 -9 14 0 36 7 48 16 12 8 35 14 50 13 15
-1 37 1 50 5 19 6 23 14 20 44 -2 27 -7 36 -18 33 -33 -8 -147 -6 -172 3 -15
5 -29 18 -31 28 -5 18 -18 23 -30 11z"/>
<path d="M2234 5031 c-40 -10 -54 -19 -54 -36 0 -32 46 -27 86 10 38 36 32 41
-32 26z"/>
<path d="M2126 4963 c8 -47 21 -63 34 -43 14 22 12 40 -5 46 -8 4 -15 12 -15
20 0 8 -5 14 -10 14 -7 0 -8 -14 -4 -37z"/>
<path d="M1990 4983 c0 -6 -3 -18 -6 -27 -4 -10 -1 -16 9 -16 23 0 28 15 12
36 -8 10 -15 14 -15 7z"/>
<path d="M2084 4919 c-3 -6 -2 -15 4 -21 7 -7 14 -3 21 11 10 17 9 21 -3 21
-8 0 -18 -5 -22 -11z"/>
<path d="M4915 4858 c2 -40 4 -76 4 -80 1 -10 33 -10 55 -2 24 9 19 41 -9 66
-14 12 -25 29 -25 39 0 23 -10 49 -20 49 -4 0 -6 -33 -5 -72z"/>
<path d="M6813 4914 c-7 -7 -13 -19 -13 -26 0 -7 7 -2 16 10 18 26 16 37 -3
16z"/>
<path d="M6810 4850 c0 -5 4 -10 9 -10 6 0 13 5 16 10 3 6 -1 10 -9 10 -9 0
-16 -4 -16 -10z"/>
<path d="M7001 4609 c-40 -16 -12 -28 75 -33 62 -5 89 -2 113 10 17 9 29 20
26 25 -8 12 -183 10 -214 -2z"/>
<path d="M6338 4593 c6 -2 18 -2 25 0 6 3 1 5 -13 5 -14 0 -19 -2 -12 -5z"/>
<path d="M2641 4564 c-33 -14 -33 -15 -15 -29 10 -8 24 -15 30 -15 11 0 54 42
54 53 0 11 -33 7 -69 -9z"/>
<path d="M2623 4455 c-14 -10 -19 -22 -16 -35 7 -26 33 -26 33 0 0 14 7 20 21
20 18 0 19 2 9 15 -15 19 -20 19 -47 0z"/>
<path d="M5920 4410 c0 -6 7 -10 15 -10 8 0 15 2 15 4 0 2 -7 6 -15 10 -8 3
-15 1 -15 -4z"/>
<path d="M1886 4271 c-9 -14 4 -41 20 -41 15 0 17 10 8 34 -7 18 -20 21 -28 7z"/>
<path d="M7521 4214 c0 -11 3 -14 6 -6 3 7 2 16 -1 19 -3 4 -6 -2 -5 -13z"/>
<path d="M2010 4201 c0 -5 5 -13 10 -16 6 -3 10 -2 10 4 0 5 -4 13 -10 16 -5
3 -10 2 -10 -4z"/>
<path d="M1893 4148 c-12 -27 -7 -48 12 -48 22 0 39 38 24 56 -16 19 -24 18
-36 -8z"/>
<path d="M2900 4129 c0 -5 5 -7 10 -4 6 3 10 8 10 11 0 2 -4 4 -10 4 -5 0 -10
-5 -10 -11z"/>
<path d="M2597 4044 c-4 -4 -41 -7 -83 -8 -52 -1 -79 -5 -82 -13 -2 -7 -17
-13 -34 -13 -25 0 -28 -3 -19 -14 6 -7 9 -20 7 -27 -3 -8 -2 -30 2 -49 6 -27
17 -40 47 -56 25 -12 41 -28 43 -42 5 -33 37 -27 77 12 18 19 47 37 64 41 16
3 35 13 42 21 10 12 9 16 -9 20 -41 11 -33 47 13 56 32 5 28 31 -8 56 -34 23
-49 27 -60 16z"/>
<path d="M1880 3946 c0 -22 35 -60 48 -52 9 5 8 15 -3 37 -16 30 -45 40 -45
15z"/>
<path d="M7959 3943 c-1 -4 -3 -28 -5 -53 -1 -25 -5 -55 -9 -67 -7 -21 -6 -21
29 -11 20 6 36 17 36 23 0 7 3 27 6 44 6 27 4 31 -15 31 -15 0 -21 5 -19 16 2
10 -3 19 -9 21 -7 3 -14 1 -14 -4z"/>
<path d="M8266 3928 c-16 -23 -21 -50 -10 -61 9 -9 76 62 69 73 -11 17 -43 11
-59 -12z"/>
<path d="M2780 3927 c0 -16 -20 -27 -48 -27 -9 -1 -29 -19 -45 -41 -15 -22
-38 -44 -52 -49 -14 -5 -24 -15 -23 -22 2 -9 -14 -13 -56 -14 -52 0 -61 -3
-81 -29 -14 -17 -22 -39 -21 -54 3 -21 10 -27 42 -34 22 -4 48 -8 59 -7 11 0
31 1 44 1 13 1 27 -4 31 -10 18 -31 74 33 64 73 -4 18 2 31 25 55 17 17 38 31
48 31 10 0 28 3 41 7 19 4 22 10 17 27 -4 11 -8 39 -8 61 -2 29 -7 41 -19 43
-11 2 -18 -3 -18 -11z"/>
<path d="M7460 3926 c0 -8 5 -18 10 -21 6 -3 10 1 10 9 0 8 -4 18 -10 21 -5 3
-10 -1 -10 -9z"/>
<path d="M3037 3911 c-7 -26 4 -40 42 -51 25 -7 33 -6 38 6 7 18 -22 49 -53
58 -16 5 -23 2 -27 -13z"/>
<path d="M5528 3880 c5 -32 19 -40 28 -15 6 15 -11 45 -25 45 -4 0 -6 -13 -3
-30z"/>
<path d="M8030 3839 c-12 -27 -11 -33 7 -51 12 -11 26 -17 32 -14 15 9 14 69
-1 84 -18 18 -24 15 -38 -19z"/>
<path d="M1741 3843 c-24 -46 -9 -73 40 -73 23 0 25 23 3 41 -9 7 -20 22 -24
33 -7 20 -7 20 -19 -1z"/>
<path d="M8158 3803 c-28 -4 -68 -45 -68 -69 0 -8 -4 -14 -10 -14 -5 0 -19 -9
-30 -20 -17 -17 -18 -24 -8 -45 13 -29 25 -31 50 -8 11 9 34 17 51 16 18 -1
24 1 15 4 -27 7 -22 26 16 67 22 23 44 36 60 36 25 0 43 15 29 23 -14 8 -78
14 -105 10z"/>
<path d="M5569 3777 c-1 -4 -2 -12 -3 -19 -2 -18 -25 -21 -32 -4 -9 23 -44 -3
-44 -33 0 -13 -12 -48 -26 -78 -19 -42 -33 -58 -61 -69 -24 -10 -33 -20 -29
-30 3 -9 1 -12 -4 -9 -18 11 -11 -33 11 -70 16 -27 27 -35 41 -32 11 3 21 0
24 -8 10 -25 238 -128 271 -122 12 2 24 -1 26 -7 3 -8 11 -7 29 1 35 16 45 72
14 74 -63 5 -88 8 -92 11 -2 3 1 18 7 34 10 25 8 36 -15 78 -29 55 -26 73 10
50 17 -12 23 -22 19 -35 -7 -20 2 -24 24 -10 18 11 8 54 -19 81 -17 17 -21 18
-34 4 -11 -10 -20 -12 -33 -5 -10 5 -26 12 -35 15 -14 4 -16 15 -11 78 5 66 3
75 -16 92 -11 11 -22 16 -22 13z m-61 -214 c-4 -22 -48 -31 -48 -10 0 19 10
27 32 27 13 0 18 -6 16 -17z m52 -22 c0 -17 -46 -64 -58 -60 -16 6 23 69 43
69 8 0 15 -4 15 -9z"/>
<path d="M7444 3747 c3 -24 19 -27 24 -4 2 8 -4 17 -12 20 -12 5 -15 1 -12
-16z"/>
<path d="M7849 3768 c-1 -2 -3 -21 -4 -42 -2 -32 -10 -46 -47 -80 -25 -23 -53
-57 -62 -77 -8 -20 -22 -42 -31 -49 -22 -18 -12 -122 18 -179 28 -55 64 -70
131 -54 33 7 48 6 62 -4 23 -17 45 -17 80 2 16 8 25 15 21 15 -5 0 6 20 23 44
29 40 35 44 72 42 26 -1 45 -9 54 -20 8 -12 19 -16 30 -12 15 6 16 8 0 24 -18
20 -22 62 -6 62 6 0 10 16 10 35 0 19 -4 35 -8 35 -5 0 -17 8 -28 18 -32 27
-62 42 -87 42 -34 0 -38 -8 -22 -45 7 -19 11 -36 7 -39 -9 -10 -32 -7 -32 4 0
16 -50 60 -88 76 -36 15 -37 14 -55 -11 -10 -14 -25 -25 -34 -25 -21 0 -11 23
15 35 12 5 26 22 32 36 10 24 15 26 51 22 36 -5 39 -4 39 19 0 14 -3 40 -6 57
-5 25 -11 30 -23 25 -43 -18 -61 -17 -61 4 0 22 -43 54 -51 40z m144 -463 c3
-15 -43 -19 -57 -5 -8 8 -7 13 3 19 16 10 52 0 54 -14z"/>
<path d="M1636 3752 c-3 -6 -1 -14 5 -17 15 -10 25 3 12 16 -7 7 -13 7 -17 1z"/>
<path d="M5677 3698 c-3 -18 -8 -43 -12 -56 -6 -19 -4 -22 16 -20 30 4 39 25
30 68 -9 45 -27 49 -34 8z"/>
<path d="M6995 3663 c2 -10 4 -26 4 -36 1 -10 6 -15 12 -12 5 4 8 12 6 18 -2
7 2 20 11 30 14 16 13 17 -11 17 -19 0 -24 -5 -22 -17z"/>
<path d="M8305 3600 c-3 -5 1 -10 9 -10 9 0 16 5 16 10 0 6 -4 10 -9 10 -6 0
-13 -4 -16 -10z"/>
<path d="M8210 3534 c0 -10 8 -27 19 -38 21 -23 35 -93 20 -101 -15 -10 -11
-25 9 -32 9 -3 32 -20 50 -36 l32 -31 0 127 c0 70 -3 127 -6 127 -4 0 -12 -7
-18 -15 -11 -15 -34 -12 -88 10 -13 5 -18 2 -18 -11z"/>
<path d="M1960 3491 c0 -5 5 -13 10 -16 6 -3 10 -2 10 4 0 5 -4 13 -10 16 -5
3 -10 2 -10 -4z"/>
<path d="M5830 3449 c0 -25 33 -22 38 4 2 12 -3 17 -17 17 -15 0 -21 -6 -21
-21z"/>
<path d="M7480 3440 c11 -7 5 -10 -25 -11 -39 -1 -39 -2 -10 -9 61 -16 121
-11 140 10 18 20 17 20 -51 20 -48 0 -64 -3 -54 -10z"/>
<path d="M1970 3429 c0 -5 5 -7 10 -4 6 3 10 8 10 11 0 2 -4 4 -10 4 -5 0 -10
-5 -10 -11z"/>
<path d="M5846 3348 c-14 -31 -13 -33 6 -36 11 -2 30 -12 41 -23 22 -20 23
-18 -28 -34 -24 -7 -17 -24 13 -32 29 -7 67 -7 122 0 19 3 39 6 43 6 5 1 1 9
-9 18 -13 14 -14 18 -3 21 8 2 29 11 48 19 l33 15 -31 19 c-17 10 -37 19 -44
19 -6 0 -21 7 -32 16 -13 9 -38 14 -71 13 -28 -1 -56 1 -62 5 -8 5 -17 -5 -26
-26z"/>
<path d="M6173 3301 c5 -24 2 -31 -14 -36 -15 -5 -17 -10 -10 -19 6 -7 7 -17
3 -21 -4 -5 -2 -5 4 -2 7 4 23 -2 35 -13 29 -23 34 -22 -131 -29 -54 -2 -61
-4 -40 -12 30 -12 275 -17 286 -6 12 12 -13 25 -39 20 -27 -4 -52 11 -43 26 4
6 16 11 26 11 10 0 22 5 26 11 4 8 9 7 15 -2 7 -11 9 -10 9 4 0 13 -9 17 -37
18 -53 1 -74 11 -63 28 10 17 -5 51 -22 51 -6 0 -8 -11 -5 -29z"/>
<path d="M6134 3294 c3 -9 6 -18 6 -20 0 -2 5 -4 10 -4 6 0 10 9 10 20 0 12
-7 20 -16 20 -11 0 -14 -5 -10 -16z"/>
<path d="M7658 3223 c7 -3 16 -2 19 1 4 3 -2 6 -13 5 -11 0 -14 -3 -6 -6z"/>
<path d="M7917 3184 c-3 -4 -39 -8 -79 -9 -109 -4 -108 -4 -108 -16 0 -7 34
-10 103 -8 56 1 107 1 112 -1 37 -10 129 9 115 24 -9 8 -135 17 -143 10z"/>
<path d="M5590 3153 c0 -4 9 -19 20 -33 l19 -25 -7 29 c-7 27 -32 50 -32 29z"/>
<path d="M5715 2851 c-3 -5 2 -11 10 -15 8 -3 17 -1 20 3 3 5 -2 11 -10 15 -8
3 -17 1 -20 -3z"/>
<path d="M6280 2753 c0 -25 13 -43 31 -43 24 0 25 18 2 27 -10 4 -21 11 -25
17 -5 8 -8 7 -8 -1z"/>
<path d="M7355 2741 c-20 -8 -20 -8 0 -12 31 -7 95 2 89 12 -6 11 -61 11 -89
0z"/>
<path d="M7555 2740 c-13 -5 5 -9 57 -11 42 -2 74 -1 70 3 -12 12 -104 18
-127 8z"/>
<path d="M7738 2733 c7 -3 16 -2 19 1 4 3 -2 6 -13 5 -11 0 -14 -3 -6 -6z"/>
<path d="M6112 2718 c-6 -7 -13 -31 -17 -52 l-8 -39 29 7 c38 10 54 24 47 42
-3 8 0 20 6 28 6 7 8 16 4 19 -11 12 -50 8 -61 -5z"/>
<path d="M6320 2561 c-13 -25 -13 -41 0 -41 13 0 50 37 50 50 0 18 -39 11 -50
-9z"/>
<path d="M6576 2541 c-4 -7 -5 -15 -2 -18 9 -9 19 4 14 18 -4 11 -6 11 -12 0z"/>
<path d="M6670 2500 c0 -5 5 -10 10 -10 6 0 10 5 10 10 0 6 -4 10 -10 10 -5 0
-10 -4 -10 -10z"/>
<path d="M6553 2453 c-16 -6 -16 -43 0 -63 25 -32 78 -63 89 -52 17 17 1 42
-26 42 -29 0 -43 17 -27 33 6 6 11 14 11 19 0 11 -33 26 -47 21z"/>
<path d="M6627 2443 c-12 -11 -8 -20 17 -31 19 -8 27 -8 36 3 9 11 7 16 -9 24
-23 13 -35 14 -44 4z"/>
<path d="M6697 2423 c-11 -10 -8 -63 3 -63 14 0 32 39 26 56 -6 15 -18 18 -29
7z"/>
<path d="M7086 2392 c-22 -5 -23 1 52 -222 76 -224 95 -286 143 -478 40 -158
54 -223 89 -429 10 -61 23 -129 29 -150 5 -21 12 -66 16 -100 7 -62 7 -63 41
-69 29 -5 34 -10 32 -28 -2 -16 -9 -20 -27 -18 l-24 4 6 -78 c4 -42 17 -123
29 -180 19 -93 23 -102 39 -93 29 15 32 -7 4 -29 -15 -12 -20 -22 -14 -24 8
-3 9 -10 2 -23 -8 -17 -2 -151 10 -235 2 -14 5 -39 5 -56 3 -43 25 -72 45 -56
12 10 16 9 20 -8 4 -17 10 -20 33 -14 32 8 25 -12 -10 -26 -17 -7 -17 -9 -3
-9 9 -1 17 -6 17 -12 0 -6 6 -9 14 -6 24 10 38 -15 19 -35 -9 -10 -11 -18 -5
-18 6 0 14 4 17 10 8 13 45 13 45 0 0 -17 25 -11 38 10 7 11 19 20 27 20 8 0
23 9 32 20 24 27 41 25 49 -6 6 -23 10 -26 41 -21 28 5 34 3 29 -8 -7 -18 3
-19 26 -1 12 9 14 16 7 23 -8 8 -5 16 9 29 19 16 19 19 5 40 -11 18 -21 22
-39 18 -12 -3 -29 -2 -36 2 -29 19 -67 12 -93 -17 -22 -26 -28 -28 -48 -18
-12 7 -25 16 -28 21 -5 8 -25 15 -54 17 -5 1 -3 5 5 11 8 5 11 12 7 16 -4 4
-15 0 -25 -9 -10 -10 -27 -17 -38 -17 -16 1 -15 4 9 23 15 13 27 28 27 35 0 6
9 16 20 22 30 16 24 39 -12 55 -28 11 -30 15 -15 21 12 4 29 -1 47 -15 36 -26
38 -26 66 4 26 28 51 32 80 10 10 -8 27 -15 36 -15 9 0 21 -6 25 -13 13 -20
55 -37 98 -40 35 -2 41 -6 48 -32 4 -16 8 -36 9 -43 1 -9 10 -11 30 -6 24 5
30 2 35 -14 6 -25 32 -37 47 -22 7 7 7 16 1 28 -15 25 -7 64 18 95 19 23 30
27 84 30 l63 2 0 1048 0 1047 -102 1 c-57 1 -112 3 -123 5 -11 2 -42 6 -70 10
-57 6 -933 21 -959 16z m944 -457 c17 -21 3 -35 -36 -35 -38 0 -47 22 -16 39
24 14 38 13 52 -4z m-221 -165 c10 -5 35 -10 55 -12 32 -2 36 -5 32 -23 -3
-11 -6 -26 -6 -32 0 -8 -14 -13 -34 -13 -26 0 -41 7 -60 30 -14 17 -23 37 -20
45 7 18 10 18 33 5z m13 -157 c30 -20 42 -23 50 -15 16 16 28 15 28 -3 0 -7 8
-18 17 -24 28 -15 7 -25 -48 -22 -72 4 -119 25 -119 54 0 45 19 48 72 10z
m-187 -613 c0 -11 -9 -14 -35 -12 -19 2 -30 -1 -24 -5 17 -13 24 -42 12 -49
-6 -4 -15 1 -20 10 -5 9 -18 16 -28 16 -31 0 -23 16 18 39 42 23 77 23 77 1z
m19 -119 c8 -13 -3 -19 -24 -14 -11 3 -17 9 -14 14 7 11 31 12 38 0z m34 -110
c21 -13 10 -47 -13 -43 -80 13 -91 21 -57 41 21 13 52 14 70 2z m-143 -10 c3
-5 1 -12 -4 -15 -12 -8 -41 3 -41 15 0 12 37 12 45 0z m232 -111 c28 -31 28
-35 2 -61 -16 -16 -18 -23 -9 -29 23 -14 -8 -22 -58 -14 -26 4 -41 9 -33 12 8
2 22 12 32 21 24 19 25 46 3 37 -9 -4 -23 -1 -30 5 -7 6 -19 7 -26 3 -7 -4
-10 -4 -6 1 4 4 3 15 -4 22 -17 20 1 29 59 28 38 0 52 -5 70 -25z m-128 -46
c2 -2 2 -7 -1 -10 -4 -3 -19 2 -35 10 l-28 16 30 -6 c17 -4 32 -8 34 -10z
m-87 -116 c-9 -9 -15 -9 -24 0 -9 9 -7 12 12 12 19 0 21 -3 12 -12z m284 -32
c3 -7 -3 -28 -14 -45 -18 -30 -19 -30 -36 -13 -15 18 -15 21 5 45 23 30 37 34
45 13z m80 -41 c7 -18 -12 -45 -32 -45 -14 0 -20 41 -7 53 11 12 33 7 39 -8z
m138 -57 c5 -9 7 -20 3 -25 -9 -8 -60 20 -65 37 -6 18 49 7 62 -12z m-306 -8
c-13 -20 -48 -28 -48 -10 0 11 29 29 48 30 10 0 10 -4 0 -20z m192 -11 c16
-28 7 -34 -29 -18 -23 10 -27 16 -19 26 16 19 36 16 48 -8z"/>
<path d="M5370 2070 c0 -5 7 -10 16 -10 8 0 12 5 9 10 -3 6 -10 10 -16 10 -5
0 -9 -4 -9 -10z"/>
<path d="M5558 2058 c9 -9 15 -9 24 0 9 9 7 12 -12 12 -19 0 -21 -3 -12 -12z"/>
<path d="M5576 1884 c-9 -8 -16 -19 -16 -24 0 -4 -10 -11 -22 -14 -21 -6 -20
-8 15 -23 28 -11 41 -12 51 -4 18 15 26 57 13 70 -15 15 -23 14 -41 -5z"/>
<path d="M6660 1737 c0 -8 7 -18 16 -21 11 -4 14 -1 12 11 -4 21 -28 30 -28
10z"/>
<path d="M7276 1351 c-4 -5 -23 -7 -44 -4 -33 5 -36 4 -22 -10 16 -17 102 -27
110 -13 7 12 -37 40 -44 27z"/>
<path d="M7330 1245 c0 -11 5 -27 10 -35 8 -12 10 -12 10 5 0 11 -5 27 -10 35
-8 12 -10 12 -10 -5z"/>
<path d="M7211 1234 c7 -8 6 -14 -1 -19 -5 -3 -10 -12 -9 -18 0 -9 2 -9 5 0 3
7 12 9 20 6 8 -3 21 -2 30 1 15 6 15 8 -1 26 -19 21 -61 25 -44 4z"/>
<path d="M7283 1123 c-17 -37 0 -84 40 -107 40 -23 22 -41 -39 -40 l-44 1 0
-41 c-1 -36 -2 -39 -14 -23 -20 27 -28 20 -20 -18 5 -28 3 -35 -10 -35 -12 0
-14 -7 -9 -32 3 -18 10 -35 14 -38 14 -9 22 -107 10 -114 -13 -9 -15 -46 -2
-46 5 0 12 -19 15 -42 3 -24 8 -62 12 -86 5 -38 4 -44 -14 -49 -17 -4 -20 -11
-15 -41 3 -21 12 -44 19 -53 8 -8 14 -24 14 -34 0 -10 9 -33 21 -52 16 -26 22
-54 25 -126 6 -153 1 -142 66 -145 l57 -3 -5 152 c-5 146 -6 154 -29 175 -14
13 -25 32 -25 42 0 29 -23 69 -37 65 -7 -3 -11 7 -11 26 1 23 5 29 22 29 12
-1 29 -8 38 -16 15 -13 16 0 13 180 -6 375 -13 446 -43 481 -21 24 -35 21 -49
-10z m17 -183 c0 -5 -2 -10 -4 -10 -3 0 -8 5 -11 10 -3 6 -1 10 4 10 6 0 11
-4 11 -10z m50 -252 c0 -6 -6 -5 -15 2 -8 7 -15 14 -15 16 0 2 7 1 15 -2 8 -4
15 -11 15 -16z"/>
<path d="M7230 1091 c0 -11 5 -23 10 -26 6 -3 10 3 10 14 0 11 -4 23 -10 26
-5 3 -10 -3 -10 -14z"/>
<path d="M6960 658 c0 -18 20 -38 38 -38 19 0 10 20 -16 38 -19 12 -22 12 -22
0z"/>
<path d="M7027 643 c-10 -9 -9 -23 1 -23 5 0 9 7 9 15 0 17 -1 18 -10 8z"/>
<path d="M7035 471 c-3 -5 -1 -12 5 -16 5 -3 10 1 10 9 0 18 -6 21 -15 7z"/>
<path d="M7140 425 c-1 -5 -2 -14 -1 -19 1 -5 -7 -15 -19 -23 -11 -8 -18 -19
-15 -24 4 -5 4 -13 1 -18 -7 -10 -76 22 -87 40 -10 16 -39 3 -39 -17 0 -8 13
-21 30 -27 22 -8 39 -29 67 -84 37 -72 46 -82 58 -63 9 15 35 0 35 -22 0 -23
35 -21 36 2 0 8 4 22 8 32 4 9 1 29 -8 47 -9 16 -16 37 -16 46 0 8 -4 15 -8
15 -5 0 -17 6 -27 14 -16 11 -17 17 -7 29 10 11 10 24 3 49 -5 18 -10 29 -11
23z"/>
<path d="M6920 374 c0 -8 5 -12 10 -9 6 3 10 10 10 16 0 5 -4 9 -10 9 -5 0
-10 -7 -10 -16z"/>
<path d="M7772 248 c-18 -18 -15 -26 18 -43 28 -15 30 -14 30 4 0 46 -23 64
-48 39z"/>
<path d="M8190 185 c-9 -11 -9 -22 0 -50 6 -19 15 -35 20 -35 4 0 10 -8 13
-18 5 -21 69 -40 75 -22 5 14 29 13 35 -2 3 -7 6 -1 6 15 1 26 -1 27 -44 27
-25 0 -45 5 -45 10 0 6 10 10 23 10 l22 1 -23 19 c-13 10 -24 23 -25 27 -1 4
-4 7 -7 6 -3 -1 -13 -5 -24 -9 -15 -6 -17 -4 -11 14 7 26 2 28 -15 7z"/>
<path d="M6716 153 c-6 -14 -5 -15 5 -6 7 7 10 15 7 18 -3 3 -9 -2 -12 -12z"/>
<path d="M7110 112 c0 -3 8 -29 17 -59 16 -51 18 -53 52 -53 32 1 34 2 16 12
-11 6 -23 16 -27 22 -11 15 -10 38 1 32 9 -6 23 33 16 45 -6 8 -75 10 -75 1z"/>
<path d="M6660 48 c-17 -38 -17 -43 -4 -46 22 -5 31 7 39 51 10 52 -11 49 -35
-5z"/>
<path d="M7801 26 c-17 -20 -10 -29 19 -24 19 3 19 5 8 21 -13 17 -15 17 -27
3z"/>
<path d="M8065 20 c-3 -5 -13 -7 -23 -4 -15 5 -15 4 1 -6 22 -14 59 -10 65 8
4 14 -34 17 -43 2z"/>
<path d="M8130 10 c0 -6 7 -10 15 -10 8 0 15 2 15 4 0 2 -7 6 -15 10 -8 3 -15
1 -15 -4z"/>
<path d="M8185 10 c3 -5 15 -10 26 -10 10 0 19 5 19 10 0 6 -12 10 -26 10 -14
0 -23 -4 -19 -10z"/>
</g>
</svg>
