<svg width="50" height="42" viewBox="0 0 50 42" fill="none" xmlns="http://www.w3.org/2000/svg">
<path d="M4 8H35.9C38.1 8 39.9 6.2 39.9 4C39.9 1.8 38.1 0 35.9 0H4C1.8 0 0 1.8 0 4C0 6.2 1.8 8 4 8Z" fill="white"/>
<path d="M35.8 33.2002H4C1.8 33.2002 0 35.0002 0 37.2002C0 39.4002 1.8 41.2002 4 41.2002H35.9C38.1 41.2002 39.9 39.4002 39.9 37.2002C39.9 35.0002 38 33.2002 35.8 33.2002Z" fill="white"/>
<path d="M45.8 16.5996H4C1.8 16.5996 0 18.3996 0 20.5996C0 22.7996 1.8 24.5996 4 24.5996H45.9C48.1 24.5996 49.9 22.7996 49.9 20.5996C49.9 18.3996 48 16.5996 45.8 16.5996Z" fill="white"/>
</svg>
