<svg width="18" height="35" viewBox="0 0 18 35" fill="none" xmlns="http://www.w3.org/2000/svg">
<path d="M9 0C4.278 0 0 3.72313 0 8.31542C0 12.9063 3.903 18.3881 9 26.25C14.097 18.3881 18 12.9063 18 8.31542C18 3.72313 13.7235 0 9 0ZM9 11.6667C7.3425 11.6667 6 10.3615 6 8.75C6 7.13854 7.3425 5.83333 9 5.83333C10.6575 5.83333 12 7.13854 12 8.75C12 10.3615 10.6575 11.6667 9 11.6667ZM15 32.8125C15 34.02 12.315 35 9 35C5.685 35 3 34.02 3 32.8125C3 31.605 5.685 30.625 9 30.625C12.315 30.625 15 31.605 15 32.8125Z" fill="white"/>
</svg>
